# xmcd
#
# Track frame offsets:
#	150
#	15103
#	33517
#	49892
#	65592
#	83827
#	105154
#	124151
#	146307
#	160550
#	180217
#	195620
#	212596
#	232372
#
# Disc length: 3776 seconds
#
# Revision: 0
# Processed by: cddbd v1.4PL0 Copyright (c) Steve Scherf et al.
# Submitted via: dBpowerAMP V4.0
#
DISCID=ac0ebe0e
DTITLE=Natalise - Forever Now
DYEAR=1900
DGENRE=Freestyle
TTITLE0=Tell Me
TTITLE1=Love Goes On
TTITLE2=Be Right There
TTITLE3=Wonderful
TTITLE4=Forever Now
TTITLE5=Anything
TTITLE6=I Wanna Hold You Tight
TTITLE7=Sometimes
TTITLE8=I Will be Waiting
TTITLE9=Dance All Night
TTITLE10=I Caught You
TTITLE11=All I Need
TTITLE12=How
TTITLE13=I Wanna Hold You Tight (Linus Remix)
EXTD=submitted by chosenbydestiny
EXTT0=
EXTT1=
EXTT2=
EXTT3=
EXTT4=
EXTT5=
EXTT6=
EXTT7=
EXTT8=
EXTT9=
EXTT10=
EXTT11=
EXTT12=
EXTT13=
PLAYORDER=
